<mxfile host="65bd71144e">
    <diagram id="1uyIFCrYjEnZss3KLxLL" name="ページ1">
        <mxGraphModel dx="851" dy="487" grid="1" gridSize="10" guides="1" tooltips="1" connect="1" arrows="1" fold="1" page="1" pageScale="1" pageWidth="827" pageHeight="1169" math="0" shadow="0">
            <root>
                <mxCell id="0"/>
                <mxCell id="1" parent="0"/>
                <mxCell id="2" value="問い合わせ送信システム" style="swimlane;startSize=0;verticalAlign=top;" vertex="1" parent="1">
                    <mxGeometry x="200" y="30" width="600" height="480" as="geometry"/>
                </mxCell>
                <mxCell id="3" value="Actor" style="shape=umlActor;verticalLabelPosition=bottom;verticalAlign=top;html=1;outlineConnect=0;" vertex="1" parent="1">
                    <mxGeometry x="80" y="100" width="30" height="60" as="geometry"/>
                </mxCell>
            </root>
        </mxGraphModel>
    </diagram>
</mxfile>